<svg width="18" height="20" viewBox="0 0 18 20" fill="none" xmlns="http://www.w3.org/2000/svg">
<path fill-rule="evenodd" clip-rule="evenodd" d="M13.4109 0.76862L13.4119 1.51824C16.1665 1.73414 17.9862 3.6112 17.9891 6.48975L18 14.9155C18.0039 18.054 16.0322 19.985 12.8718 19.99L5.15189 20C2.0112 20.004 0.0148232 18.027 0.0108739 14.8796L1.32771e-05 6.55272C-0.00393603 3.65517 1.75153 1.78311 4.50618 1.53024L4.50519 0.780614C4.5042 0.340834 4.83002 0.00999952 5.26445 0.00999952C5.69887 0.00900002 6.02469 0.338835 6.02568 0.778615L6.02666 1.47826L11.8914 1.47027L11.8904 0.770619C11.8894 0.330839 12.2152 0.00100402 12.6497 4.52073e-06C13.0742 -0.000994979 13.4099 0.32884 13.4109 0.76862ZM1.52149 6.86157L16.4696 6.84158V6.49175C16.4272 4.34283 15.349 3.21539 13.4139 3.04748L13.4148 3.81709C13.4148 4.24688 13.0801 4.58771 12.6556 4.58771C12.2212 4.58871 11.8944 4.24888 11.8944 3.81909L11.8934 3.0095L6.02864 3.01749L6.02962 3.82609C6.02962 4.25687 5.70479 4.5967 5.27037 4.5967C4.83595 4.5977 4.50914 4.25887 4.50914 3.82809L4.50815 3.05847C2.58286 3.25138 1.51754 4.38281 1.5205 6.55072L1.52149 6.86157ZM12.2402 11.4043V11.4153C12.2501 11.8751 12.6253 12.2239 13.0804 12.2139C13.5247 12.2029 13.8792 11.8221 13.8693 11.3623C13.8486 10.9225 13.4922 10.5637 13.0488 10.5647C12.5947 10.5747 12.2392 10.9445 12.2402 11.4043ZM13.055 15.892C12.6009 15.8821 12.2346 15.5032 12.2336 15.0435C12.2237 14.5837 12.588 14.2029 13.0422 14.1919H13.0521C13.5161 14.1919 13.8923 14.5707 13.8923 15.0405C13.8933 15.5102 13.5181 15.8911 13.055 15.892ZM8.17186 11.4203C8.19161 11.8801 8.56778 12.2389 9.02195 12.2189C9.46625 12.1979 9.8207 11.8181 9.80095 11.3583C9.79009 10.9085 9.42478 10.5587 8.98048 10.5597C8.52631 10.5797 8.17087 10.9605 8.17186 11.4203ZM9.02585 15.8471C8.57168 15.8671 8.1965 15.5082 8.17577 15.0485C8.17577 14.5887 8.53022 14.2089 8.98439 14.1879C9.42868 14.1869 9.79498 14.5367 9.80486 14.9855C9.82559 15.4463 9.47015 15.8261 9.02585 15.8471ZM4.10448 11.4553C4.12423 11.915 4.5004 12.2749 4.95457 12.2539C5.39887 12.2339 5.75332 11.8531 5.73258 11.3933C5.72271 10.9435 5.3574 10.5937 4.91211 10.5947C4.45794 10.6147 4.10349 10.9955 4.10448 11.4553ZM4.95849 15.852C4.50432 15.873 4.12913 15.5132 4.1084 15.0534C4.10741 14.5937 4.46285 14.2129 4.91702 14.1929C5.36132 14.1919 5.72762 14.5417 5.73749 14.9915C5.75823 15.4512 5.40377 15.8321 4.95849 15.852Z" fill="#0C145A"/>
</svg>
