<svg width="1199" height="346" viewBox="0 0 1199 346" fill="none" xmlns="http://www.w3.org/2000/svg">
<rect width="1199" height="359" rx="50" fill="#0C145A"/>
<path d="M1161.18 34.388C1151.92 29.0582 1136.65 41.8959 1132.77 45.3944C1133.55 43.1757 1134.91 41.1856 1136.71 39.6117C1136.75 39.5798 1136.78 39.5387 1136.81 39.4918C1136.83 39.4449 1136.84 39.3935 1136.84 39.3418C1136.84 39.2922 1136.82 39.2432 1136.8 39.1995C1136.78 39.1557 1136.74 39.1185 1136.7 39.0913C1135.84 38.5325 1134.83 38.2245 1133.8 38.2046C1134.33 37.5721 1135.01 37.074 1135.79 36.7533C1136.57 36.4326 1137.41 36.2989 1138.26 36.3637C1138.32 36.3726 1138.38 36.3636 1138.44 36.3379C1138.5 36.3122 1138.54 36.2709 1138.58 36.2192C1138.61 36.1664 1138.62 36.1066 1138.62 36.0457C1138.62 35.9848 1138.61 35.925 1138.58 35.8722C1138.17 35.2762 1137.6 34.7948 1136.94 34.4766C1136.28 34.1585 1135.54 34.0148 1134.8 34.0603C1136.11 33.0965 1139.08 32.7496 1140.28 32.711C1140.34 32.7104 1140.4 32.6918 1140.46 32.6576C1140.51 32.6234 1140.55 32.575 1140.58 32.5182C1140.6 32.463 1140.61 32.4023 1140.6 32.3428C1140.59 32.2833 1140.57 32.2273 1140.53 32.1809C1139.37 30.8828 1137.73 30.0761 1135.96 29.9353C1137.62 28.0077 1142.54 27.4294 1142.59 27.4198C1142.66 27.4146 1142.72 27.3872 1142.78 27.3419C1142.83 27.2966 1142.86 27.2359 1142.88 27.1692C1142.89 27.1319 1142.9 27.0918 1142.9 27.0512C1142.9 27.0107 1142.89 26.9704 1142.88 26.9328C1142.86 26.8952 1142.84 26.861 1142.81 26.8321C1142.78 26.8032 1142.75 26.7802 1142.71 26.7644C1141.15 25.8066 1139.38 25.2095 1137.54 25.02C1139.54 22.6298 1145.9 21.1648 1145.97 21.1648C1146.03 21.1495 1146.1 21.1145 1146.14 21.0645C1146.19 21.0145 1146.22 20.952 1146.23 20.8853C1146.23 20.8196 1146.22 20.7531 1146.19 20.6946C1146.16 20.6361 1146.11 20.5883 1146.05 20.5576C1141.79 18.418 1136.59 20.4998 1136.35 20.5576C1130.35 23.449 1130.08 33.0387 1130.71 39.6792C1128.35 31.6123 1123.22 18.977 1114.15 18.312C1113.85 18.312 1106.78 18.312 1102.9 22.7165C1102.86 22.7701 1102.84 22.8341 1102.84 22.8996C1102.84 22.9652 1102.86 23.0291 1102.9 23.0827C1102.93 23.1404 1102.98 23.1867 1103.05 23.2159C1103.11 23.245 1103.18 23.2557 1103.25 23.2466C1103.34 23.2466 1111.79 21.9262 1115.25 23.9501C1113.14 25.0049 1111.32 26.5359 1109.96 28.4125C1109.92 28.4691 1109.89 28.5363 1109.89 28.6053C1109.89 28.6742 1109.92 28.7414 1109.96 28.798C1110 28.8532 1110.05 28.8948 1110.12 28.9173C1110.19 28.9397 1110.26 28.9418 1110.33 28.9233C1110.4 28.9233 1116.67 27.2367 1119.55 28.8751C1118.53 29.3488 1117.63 30.0133 1116.88 30.8293C1116.14 31.6453 1115.57 32.5963 1115.22 33.6266C1115.2 33.6852 1115.19 33.7483 1115.21 33.8082C1115.23 33.8681 1115.26 33.9222 1115.31 33.9639C1115.35 34.0074 1115.41 34.037 1115.47 34.049C1115.53 34.0611 1115.6 34.0549 1115.66 34.0314C1117.15 33.5013 1121.03 32.4508 1123.03 33.164C1122.11 33.4222 1121.28 33.9176 1120.63 34.597C1119.98 35.2763 1119.53 36.1138 1119.34 37.0191C1119.33 37.0795 1119.33 37.1412 1119.36 37.1974C1119.38 37.2536 1119.42 37.302 1119.48 37.3372C1119.53 37.3676 1119.59 37.3837 1119.66 37.3837C1119.72 37.3837 1119.78 37.3676 1119.84 37.3372C1120.83 36.8463 1121.93 36.6048 1123.04 36.6352C1124.15 36.6655 1125.24 36.9667 1126.2 37.5107C1124.95 37.9979 1123.88 38.8336 1123.13 39.9105C1123.1 39.955 1123.09 40.0047 1123.09 40.0551C1123.09 40.1055 1123.1 40.1551 1123.13 40.1996C1123.15 40.2471 1123.17 40.29 1123.21 40.3251C1123.25 40.3601 1123.3 40.3864 1123.35 40.402C1126.29 41.4197 1128.91 43.1566 1130.95 45.4426C1126.01 43.6018 1109.25 38.06 1103.37 45.4426C1103.23 45.645 1099.92 50.4543 1101.37 55.1673C1101.39 55.2305 1101.43 55.2864 1101.48 55.3277C1101.53 55.369 1101.6 55.3937 1101.67 55.3986H1101.72C1101.78 55.3924 1101.83 55.3714 1101.88 55.3377C1101.93 55.3039 1101.97 55.2585 1102 55.2058C1102 55.1384 1104.92 48.9316 1107.94 47.4955C1107.76 49.3966 1108.04 51.3118 1108.78 53.0855C1108.8 53.1489 1108.84 53.2036 1108.9 53.2417C1108.96 53.2798 1109.03 53.2993 1109.1 53.2975C1109.17 53.2965 1109.24 53.2736 1109.3 53.232C1109.35 53.1905 1109.4 53.1324 1109.42 53.0662C1109.42 53.018 1111.07 48.122 1113.53 46.8594C1113.42 47.761 1113.49 48.6746 1113.75 49.5478C1114.01 50.4211 1114.44 51.2368 1115.03 51.9482C1115.07 51.9955 1115.12 52.0306 1115.18 52.0494C1115.24 52.0682 1115.31 52.0699 1115.37 52.0542C1115.43 52.0422 1115.48 52.0129 1115.53 51.97C1115.57 51.9272 1115.6 51.8727 1115.62 51.8133C1115.91 50.5989 1116.88 47.6112 1118.25 46.5124C1118.04 47.2522 1118.04 48.0323 1118.24 48.7725C1118.45 49.5127 1118.86 50.1864 1119.43 50.7242C1119.47 50.7647 1119.53 50.7923 1119.59 50.8042C1119.65 50.816 1119.72 50.8117 1119.78 50.7917C1119.84 50.769 1119.89 50.731 1119.93 50.6817C1119.97 50.6324 1119.99 50.5737 1120 50.5122C1120.1 49.6411 1120.43 48.8078 1120.94 48.0842C1121.45 47.3605 1122.14 46.7681 1122.95 46.3582C1122.75 47.4107 1122.87 48.4963 1123.31 49.4809C1123.33 49.5272 1123.36 49.568 1123.4 49.5999C1123.44 49.6318 1123.49 49.6538 1123.54 49.664C1123.59 49.6748 1123.64 49.6743 1123.69 49.6626C1123.74 49.6509 1123.79 49.6283 1123.83 49.5966C1124.62 48.9993 1125.48 48.4976 1126.4 48.1027C1126 48.4588 1125.69 48.8982 1125.49 49.3876C1125.29 49.877 1125.21 50.4033 1125.26 50.9266C1125.34 51.8453 1125.79 52.6953 1126.53 53.2899C1127.26 53.8844 1128.2 54.1749 1129.16 54.0974C1129.94 54.0312 1130.68 53.7159 1131.26 53.2011C1132.11 55.3407 1135.36 65.5954 1129.86 85.9699C1122.44 88.1192 1121.26 90.3745 1120.23 92.3695C1119.89 93.0944 1119.45 93.7669 1118.91 94.3645C1118.38 95.0768 1118.07 95.9141 1118.01 96.7845C1117.95 97.6549 1118.14 98.5249 1118.56 99.2991C1119.93 102.056 1124.44 105.082 1138.1 103.973C1147.5 103.202 1153.29 101.082 1155.31 97.6703C1155.72 97.0168 1155.96 96.2801 1156.03 95.5188C1156.09 94.7575 1155.96 93.9926 1155.67 93.2851C1153.67 88.6782 1148.55 84.9483 1143.67 84.4953C1142.89 77.0645 1140.5 59.6489 1134.84 52.6903C1135.08 52.7144 1135.32 52.7144 1135.56 52.6903C1136.51 52.6094 1137.39 52.1674 1138.01 51.4611C1138.63 50.7548 1138.93 49.8417 1138.85 48.9219C1138.78 48.2306 1138.51 47.5733 1138.05 47.0354C1137.6 46.4974 1136.99 46.1037 1136.3 45.9052C1138.22 45.744 1140.16 45.917 1142.03 46.4161C1142.07 46.4374 1142.12 46.4484 1142.17 46.4484C1142.22 46.4484 1142.27 46.4374 1142.32 46.4161C1142.36 46.3893 1142.4 46.3525 1142.42 46.3088C1142.45 46.2651 1142.46 46.2159 1142.47 46.1655C1142.49 44.9669 1142.14 43.7885 1141.47 42.7826C1142.48 42.875 1143.46 43.2097 1144.31 43.7565C1145.16 44.3034 1145.85 45.0451 1146.33 45.9149C1146.35 45.9691 1146.4 46.0149 1146.45 46.0472C1146.5 46.0795 1146.56 46.0971 1146.63 46.098C1146.69 46.0971 1146.75 46.0795 1146.8 46.0472C1146.86 46.0149 1146.9 45.9691 1146.93 45.9149C1147.29 45.1347 1147.43 44.2742 1147.32 43.4253C1147.21 42.5764 1146.87 41.7712 1146.33 41.096C1148.21 41.626 1150.53 44.3728 1151.33 45.5294C1151.36 45.5772 1151.41 45.6156 1151.46 45.6409C1151.52 45.6663 1151.58 45.6776 1151.64 45.6739V45.6739C1151.7 45.6649 1151.76 45.6381 1151.81 45.5971C1151.86 45.556 1151.89 45.5023 1151.91 45.4426C1152.2 44.4868 1152.3 43.484 1152.19 42.4917C1152.09 41.4995 1151.78 40.5372 1151.29 39.6599C1154.36 39.9491 1158.14 44.3921 1158.18 44.4789C1158.22 44.5314 1158.28 44.5696 1158.35 44.5886C1158.42 44.6075 1158.49 44.6062 1158.56 44.5849C1158.63 44.5634 1158.68 44.5204 1158.72 44.4627C1158.76 44.4049 1158.78 44.336 1158.78 44.2668C1158.79 42.1536 1158.27 40.0689 1157.28 38.1853C1160.99 38.4552 1166.62 43.756 1166.68 43.8138C1166.73 43.8606 1166.79 43.8913 1166.86 43.9016C1166.93 43.912 1166.99 43.9015 1167.06 43.8717C1167.12 43.8441 1167.17 43.7987 1167.2 43.7417C1167.24 43.6848 1167.25 43.6191 1167.25 43.5536C1166.82 38.1853 1161.43 34.5518 1161.18 34.388ZM1143.29 87.9842C1143.16 88.9969 1142.72 89.9518 1142.05 90.7346C1141.37 91.5174 1140.47 92.0951 1139.46 92.3984C1136.62 93.3622 1132.61 92.7261 1130.71 91.0106C1130.32 90.7077 1130.03 90.3047 1129.87 89.8488C1129.72 89.393 1129.7 88.9033 1129.82 88.4372L1130.06 87.5891C1132.52 88.4701 1135.14 88.8603 1137.76 88.736C1139.8 88.6567 1141.73 87.8212 1143.15 86.4036C1143.24 87.2807 1143.28 87.8397 1143.29 87.9842V87.9842ZM1143.06 85.4784C1139.63 89.9215 1131.8 87.5024 1130.23 86.953C1130.69 85.3146 1131.09 83.7404 1131.44 82.2304C1133.2 83.282 1135.28 83.749 1137.35 83.5605C1139.22 83.3688 1141.03 82.7867 1142.65 81.8546C1142.82 83.2617 1142.96 84.4954 1143.06 85.4784ZM1142.56 81.151C1136.56 84.6206 1132.44 82.1148 1131.56 81.5461C1131.9 80.033 1132.18 78.5873 1132.43 77.2091C1134.04 77.7109 1135.74 77.904 1137.43 77.7777C1138.97 77.6597 1140.47 77.2155 1141.82 76.4766C1142.15 78.144 1142.37 79.7728 1142.56 81.151ZM1132.56 76.5537C1132.81 75.108 1133.01 73.7202 1133.16 72.4191C1134.48 72.8855 1135.89 73.0665 1137.3 72.9492C1138.61 72.842 1139.88 72.464 1141.03 71.8408C1141.3 73.1805 1141.53 74.5008 1141.74 75.7827C1140.35 76.5183 1138.82 76.9668 1137.24 77.0995C1135.66 77.2323 1134.08 77.0464 1132.58 76.5537H1132.56ZM1133.23 71.7348C1133.36 70.5011 1133.46 69.3253 1133.52 68.217C1134.65 68.5785 1135.84 68.7162 1137.03 68.6217C1138.12 68.5275 1139.19 68.1982 1140.14 67.658C1140.41 68.8049 1140.67 69.971 1140.9 71.1179C1139.75 71.7634 1138.47 72.1546 1137.14 72.2629C1135.82 72.3713 1134.49 72.1942 1133.25 71.7444L1133.23 71.7348ZM1133.56 67.5327C1133.56 66.5014 1133.62 65.528 1133.61 64.6413C1134.35 64.7708 1135.1 64.8065 1135.85 64.7473C1137 64.6722 1138.11 64.2847 1139.05 63.6293C1139.38 64.7473 1139.69 65.8942 1139.97 67.0508C1139 67.5745 1137.93 67.8898 1136.83 67.9747C1135.72 68.0595 1134.61 67.912 1133.58 67.5423L1133.56 67.5327ZM1133.61 63.9377C1133.61 62.7908 1133.53 61.7403 1133.44 60.7765C1133.97 60.8938 1134.53 60.9296 1135.08 60.8825C1136.07 60.7964 1137.02 60.4643 1137.84 59.9187C1138.19 60.8825 1138.53 61.8463 1138.84 62.8968C1138.09 63.4131 1137.24 63.7733 1136.35 63.9543C1135.45 64.1352 1134.52 64.1329 1133.63 63.9474L1133.61 63.9377ZM1133.38 60.0826C1133.29 59.273 1133.19 58.5309 1133.08 57.8562C1133.39 57.886 1133.71 57.886 1134.03 57.8562C1134.95 57.7942 1135.83 57.4574 1136.55 56.8925C1136.92 57.6538 1137.26 58.4634 1137.6 59.3019C1137.01 59.7345 1136.32 60.0306 1135.59 60.1677C1134.86 60.3047 1134.11 60.2788 1133.4 60.0922L1133.38 60.0826ZM1132.97 57.1912C1132.82 56.4202 1132.67 55.7552 1132.52 55.1865C1132.72 55.2059 1132.93 55.2059 1133.14 55.1865C1133.89 55.1367 1134.6 54.8252 1135.14 54.3095C1135.55 54.9308 1135.93 55.5743 1136.28 56.2371C1135.84 56.6234 1135.31 56.9104 1134.74 57.0771C1134.18 57.2438 1133.57 57.2861 1132.99 57.2008L1132.97 57.1912ZM1132.32 54.4926C1132.13 53.8565 1131.96 53.3843 1131.83 53.0566H1132.26C1132.79 53.0096 1133.3 52.8482 1133.76 52.5843C1134.11 52.9539 1134.45 53.3433 1134.76 53.7505C1134.46 54.0705 1134.08 54.3086 1133.65 54.4407C1133.23 54.5727 1132.77 54.5939 1132.34 54.5022L1132.32 54.4926ZM1133.63 51.9C1133.3 52.1169 1132.93 52.2686 1132.54 52.3464C1132.15 52.4241 1131.75 52.4264 1131.36 52.353C1130.74 52.2305 1130.18 51.9185 1129.76 51.4634C1129.34 51.0083 1129.08 50.4346 1129.03 49.8279C1128.99 49.4637 1129.03 49.0966 1129.15 48.7476C1129.26 48.3986 1129.44 48.0747 1129.69 47.7943V47.7943C1129.93 47.5022 1130.23 47.261 1130.58 47.0854C1130.92 46.9098 1131.3 46.8034 1131.69 46.7727H1132.12C1132.49 46.7907 1132.85 46.8791 1133.19 47.0329C1133.65 47.2438 1134.05 47.5684 1134.34 47.9743C1134.64 48.3803 1134.81 48.8532 1134.86 49.346C1134.91 49.8382 1134.82 50.3346 1134.61 50.7848C1134.4 51.2351 1134.06 51.6231 1133.65 51.9097L1133.63 51.9ZM1136.63 21.2226C1137.91 20.7436 1139.26 20.4418 1140.63 20.3263C1142.06 20.1829 1143.51 20.3441 1144.87 20.7986C1142.78 21.3576 1137.87 22.8804 1136.63 25.2127C1136.59 25.2618 1136.58 25.3186 1136.58 25.3766C1136.58 25.4345 1136.59 25.4913 1136.63 25.5404C1136.66 25.5889 1136.7 25.6281 1136.76 25.6536C1136.81 25.6791 1136.87 25.69 1136.93 25.685C1138.53 25.7218 1140.09 26.1355 1141.49 26.8897C1139.71 27.2078 1136.06 28.0752 1135 30.0606C1134.97 30.1089 1134.95 30.1638 1134.95 30.2196C1134.95 30.2754 1134.97 30.3303 1135 30.3786C1135.03 30.4282 1135.07 30.4687 1135.12 30.4958C1135.18 30.523 1135.24 30.5358 1135.3 30.5328C1136.84 30.5397 1138.32 31.0881 1139.47 32.0749C1137.95 32.2002 1134.52 32.6724 1133.64 34.282C1133.6 34.334 1133.59 34.3941 1133.59 34.4555C1133.59 34.5168 1133.6 34.5769 1133.64 34.6289C1133.67 34.6817 1133.72 34.7222 1133.79 34.7447C1133.85 34.7672 1133.91 34.7706 1133.98 34.7542C1134.6 34.6334 1135.25 34.6578 1135.86 34.8254C1136.47 34.9931 1137.03 35.2991 1137.5 35.718C1136.53 35.7344 1135.59 35.9895 1134.76 36.4588C1133.93 36.9281 1133.24 37.5958 1132.76 38.3974C1132.72 38.4483 1132.71 38.5066 1132.71 38.566C1132.71 38.6254 1132.72 38.6837 1132.76 38.7347C1132.79 38.7847 1132.84 38.8247 1132.9 38.8502C1132.95 38.8757 1133.01 38.8857 1133.08 38.8792C1134.02 38.8163 1134.97 38.9959 1135.82 39.3997C1134.12 40.9829 1132.83 42.9269 1132.05 45.0764C1131.34 40.4502 1129.12 24.885 1136.71 21.2323L1136.63 21.2226ZM1123.86 40.0165C1124.67 39.0913 1125.72 38.4007 1126.92 38.0215C1126.98 38.0049 1127.03 37.9728 1127.07 37.9286C1127.12 37.8844 1127.14 37.8299 1127.16 37.7709C1127.17 37.7115 1127.16 37.6507 1127.14 37.5948C1127.11 37.5389 1127.08 37.4899 1127.03 37.4528C1126.04 36.7377 1124.87 36.2826 1123.64 36.1323C1122.42 35.9819 1121.17 36.1414 1120.03 36.5951C1120.84 34.1856 1123.69 33.7037 1123.82 33.6459C1123.88 33.638 1123.94 33.6117 1123.99 33.5704C1124.04 33.5292 1124.07 33.4748 1124.09 33.4146C1124.1 33.354 1124.1 33.2907 1124.08 33.2314C1124.06 33.172 1124.02 33.1188 1123.98 33.0772C1122.12 31.5737 1117.69 32.7399 1115.98 33.27C1116.81 31.4822 1118.33 30.0691 1120.21 29.3185C1120.26 29.2999 1120.31 29.2668 1120.35 29.2226C1120.39 29.1785 1120.42 29.125 1120.43 29.0679C1120.44 29.0117 1120.43 28.9539 1120.41 28.9C1120.39 28.8461 1120.36 28.7977 1120.32 28.7595C1118.04 26.8801 1113.08 27.68 1110.98 28.133C1112.27 26.5066 1113.97 25.2232 1115.92 24.4031C1115.97 24.3837 1116.02 24.3503 1116.06 24.3063C1116.1 24.2623 1116.13 24.2093 1116.14 24.1526C1116.15 24.0964 1116.15 24.038 1116.13 23.9837C1116.11 23.9294 1116.07 23.8812 1116.03 23.8441C1113.32 21.6467 1106.53 22.2346 1104.03 22.5334C1107.81 19.0059 1114.03 19.0252 1114.09 19.0252C1125.01 19.8348 1130.18 39.8334 1131.36 45.1631C1129.34 42.8896 1126.78 41.1259 1123.9 40.0262L1123.86 40.0165ZM1123.71 48.9316C1123.44 47.9847 1123.44 46.987 1123.71 46.0402C1123.73 45.9829 1123.73 45.9218 1123.71 45.8638C1123.69 45.8059 1123.66 45.7534 1123.62 45.7125C1123.57 45.6703 1123.52 45.6407 1123.46 45.627C1123.4 45.6134 1123.34 45.6163 1123.28 45.6354C1122.31 45.9683 1121.44 46.5359 1120.77 47.2836C1120.09 48.0313 1119.63 48.934 1119.42 49.905C1119.05 49.3434 1118.82 48.7037 1118.77 48.0407C1118.71 47.3776 1118.82 46.711 1119.09 46.098C1119.12 46.0479 1119.14 45.9893 1119.14 45.9294C1119.14 45.8695 1119.12 45.8108 1119.09 45.7607C1119.04 45.7143 1118.99 45.6806 1118.93 45.6636C1118.86 45.6465 1118.8 45.6467 1118.74 45.6643C1116.8 46.2137 1115.6 49.6351 1115.17 51.1097C1114.3 49.743 1113.99 48.1142 1114.31 46.5413C1114.32 46.486 1114.32 46.4285 1114.3 46.3745C1114.28 46.3204 1114.25 46.2717 1114.21 46.233C1114.17 46.1906 1114.11 46.1607 1114.05 46.147C1113.99 46.1333 1113.93 46.1364 1113.88 46.1558C1111.5 46.8209 1109.81 50.3965 1109.13 52.1024C1108.58 50.5207 1108.44 48.8333 1108.72 47.1871C1108.73 47.1312 1108.73 47.072 1108.72 47.0159C1108.7 46.9599 1108.67 46.9091 1108.63 46.869C1108.58 46.8286 1108.53 46.8 1108.47 46.7864C1108.41 46.7729 1108.35 46.7748 1108.3 46.7919C1105.49 47.6015 1102.83 52.2855 1101.82 54.242C1101.09 50.1074 1103.91 46.0016 1103.93 45.9727C1105.63 43.8524 1108.36 42.8982 1111.48 42.638C1118.53 42.0597 1127.48 45.0668 1130.79 46.2715C1128.24 46.6006 1125.81 47.5128 1123.71 48.9316ZM1129.51 47.1485L1129.34 47.3027H1129.04L1129.51 47.1485ZM1125.88 51.0037C1125.84 50.6334 1125.89 50.2604 1126 49.9062C1126.12 49.5521 1126.31 49.2236 1126.56 48.9398C1126.81 48.6559 1127.11 48.4223 1127.45 48.2522C1127.8 48.082 1128.17 47.9789 1128.56 47.9485H1128.86V47.9967C1128.86 48.0449 1128.81 48.1027 1128.78 48.1509C1128.71 48.2822 1128.65 48.4174 1128.6 48.5557L1128.54 48.7581C1128.5 48.8939 1128.47 49.0324 1128.45 49.1725V49.3556C1128.43 49.564 1128.43 49.7737 1128.45 49.9821C1128.46 50.1576 1128.49 50.3317 1128.54 50.5025C1128.54 50.5604 1128.54 50.6182 1128.59 50.676L1128.71 51.0037L1128.8 51.1868C1128.84 51.2831 1128.9 51.3764 1128.96 51.4663L1129.08 51.6494C1129.13 51.7338 1129.2 51.8142 1129.27 51.8904L1129.42 52.0542C1129.49 52.1328 1129.57 52.2069 1129.65 52.2759L1129.82 52.4108C1129.9 52.4804 1129.99 52.5448 1130.09 52.6036L1130.26 52.7096C1130.4 52.7886 1130.55 52.8562 1130.71 52.912V52.912C1130.24 53.2903 1129.67 53.5195 1129.07 53.5674C1128.67 53.603 1128.28 53.5624 1127.9 53.448C1127.53 53.3336 1127.18 53.1478 1126.88 52.9015C1126.58 52.6552 1126.34 52.3535 1126.16 52.0143C1125.99 51.675 1125.88 51.3052 1125.86 50.9266L1125.88 51.0037ZM1155.03 93.6899C1155.28 94.3147 1155.38 94.9882 1155.32 95.6572C1155.26 96.3262 1155.04 96.9724 1154.68 97.545C1153.37 99.7425 1149.41 102.566 1138.01 103.511C1124.01 104.658 1120.18 101.304 1119.13 99.1931C1118.77 98.5356 1118.61 97.7993 1118.65 97.0606C1118.7 96.3218 1118.94 95.6074 1119.37 94.991C1119.95 94.3471 1120.44 93.6228 1120.81 92.8417C1121.81 90.9142 1122.86 88.9288 1129.62 86.8952C1129.49 87.3867 1129.35 87.859 1129.21 88.3794C1129.04 88.959 1129.06 89.5725 1129.25 90.1444C1129.44 90.7163 1129.8 91.2217 1130.29 91.5985C1131.29 92.3665 1132.43 92.9371 1133.66 93.2778C1134.89 93.6185 1136.18 93.7225 1137.45 93.5839C1138.22 93.5201 1138.99 93.3648 1139.73 93.1213C1140.86 92.7777 1141.87 92.1269 1142.62 91.2466C1143.38 90.3664 1143.86 89.294 1144.01 88.1577V88.0903C1144.01 87.8879 1143.92 86.8855 1143.76 85.3338C1146.19 85.7148 1148.5 86.6697 1150.46 88.114C1152.42 89.5582 1153.98 91.447 1155.01 93.6128L1155.03 93.6899ZM1138.17 49.1629C1138.2 49.5324 1138.16 49.9047 1138.04 50.2583C1137.92 50.6119 1137.74 50.9399 1137.49 51.2236C1137.24 51.5073 1136.94 51.7412 1136.6 51.9118C1136.25 52.0824 1135.88 52.1865 1135.5 52.2181C1135.16 52.2494 1134.82 52.2232 1134.5 52.141C1134.56 52.0928 1134.6 52.035 1134.66 51.9771L1134.74 51.8904C1134.83 51.7844 1134.92 51.6687 1135 51.5531C1135.07 51.447 1135.13 51.3314 1135.19 51.2254L1135.25 51.1001C1135.25 51.0133 1135.32 50.9266 1135.35 50.8302C1135.38 50.7338 1135.35 50.7338 1135.4 50.6857C1135.43 50.5972 1135.45 50.5071 1135.47 50.4158V50.2712V49.9821C1135.47 49.9372 1135.47 49.892 1135.47 49.8472C1135.48 49.7028 1135.48 49.5579 1135.47 49.4134C1135.47 49.2689 1135.47 49.1339 1135.4 48.9894C1135.33 48.8448 1135.4 48.9027 1135.4 48.8545C1135.4 48.8063 1135.35 48.6713 1135.32 48.5846L1135.26 48.4304C1135.22 48.3484 1135.19 48.2679 1135.15 48.1894C1135.12 48.1393 1135.1 48.091 1135.07 48.0449C1135.07 47.9678 1134.98 47.8907 1134.93 47.8136L1134.84 47.6883C1134.78 47.5983 1134.7 47.5144 1134.63 47.4377L1134.57 47.3606C1134.47 47.2626 1134.37 47.1693 1134.27 47.0811L1134.15 46.9943L1133.98 46.8594C1134.27 46.7337 1134.59 46.6555 1134.92 46.6281C1135.68 46.5464 1136.45 46.7585 1137.05 47.2184C1137.66 47.6784 1138.05 48.3492 1138.15 49.0858L1138.17 49.1629ZM1156.71 37.5974C1156.65 37.6026 1156.59 37.6222 1156.54 37.6542C1156.49 37.6862 1156.45 37.7297 1156.43 37.7805C1156.4 37.8306 1156.38 37.887 1156.38 37.9444C1156.38 38.0017 1156.4 38.0581 1156.43 38.1082C1157.43 39.7154 1158 41.5369 1158.09 43.409C1156.72 41.9634 1153.46 38.8792 1150.72 39.1105C1150.66 39.1145 1150.6 39.1337 1150.56 39.166C1150.51 39.1982 1150.47 39.2424 1150.45 39.2937C1150.42 39.3438 1150.4 39.4002 1150.4 39.4575C1150.4 39.5149 1150.42 39.5712 1150.45 39.6214C1151.43 41.1446 1151.78 42.9661 1151.45 44.7295C1150.45 43.4187 1147.73 40.3056 1145.5 40.4984C1145.43 40.5012 1145.37 40.5229 1145.32 40.5608C1145.27 40.5987 1145.23 40.6509 1145.21 40.7104C1145.18 40.7677 1145.18 40.8309 1145.19 40.8914C1145.21 40.9518 1145.24 41.0065 1145.29 41.0478C1145.83 41.5823 1146.23 42.2376 1146.44 42.9556C1146.66 43.6735 1146.69 44.4318 1146.53 45.1631C1145.91 44.249 1145.05 43.5033 1144.05 42.9972C1143.04 42.4911 1141.92 42.2413 1140.79 42.2718C1140.72 42.2756 1140.66 42.2955 1140.61 42.3294C1140.56 42.3632 1140.51 42.4098 1140.49 42.4645C1140.46 42.5198 1140.45 42.5805 1140.46 42.64C1140.47 42.6995 1140.5 42.7555 1140.54 42.8019C1141.22 43.6904 1141.64 44.7447 1141.74 45.8474C1139.87 45.4001 1137.95 45.2567 1136.04 45.4234C1135.11 45.5057 1134.19 45.6507 1133.29 45.8571C1137.29 42.3392 1152.14 30.022 1160.78 35.0048C1160.83 35.0048 1165.52 38.1949 1166.45 42.7826C1164.71 41.1441 1159.94 37.2794 1156.71 37.5492V37.5974Z" fill="#E5E5E5"/>
<path d="M1115.18 57.5189C1105.92 52.1891 1090.65 65.0267 1086.77 68.5253C1087.55 66.3066 1088.91 64.3165 1090.71 62.7426C1090.75 62.7107 1090.78 62.6696 1090.81 62.6227C1090.83 62.5758 1090.84 62.5244 1090.84 62.4727C1090.84 62.423 1090.82 62.3741 1090.8 62.3303C1090.78 62.2866 1090.74 62.2494 1090.7 62.2221C1089.84 61.6633 1088.83 61.3554 1087.8 61.3354C1088.33 60.7029 1089.01 60.2049 1089.79 59.8841C1090.57 59.5634 1091.41 59.4297 1092.26 59.4946C1092.32 59.5035 1092.38 59.4945 1092.44 59.4688C1092.5 59.4431 1092.54 59.4018 1092.58 59.35C1092.61 59.2973 1092.62 59.2375 1092.62 59.1766C1092.62 59.1157 1092.61 59.0558 1092.58 59.0031C1092.17 58.4071 1091.6 57.9256 1090.94 57.6075C1090.28 57.2893 1089.54 57.1457 1088.8 57.1912C1090.11 56.2274 1093.08 55.8804 1094.28 55.8419C1094.34 55.8412 1094.4 55.8227 1094.46 55.7885C1094.51 55.7542 1094.55 55.7058 1094.58 55.6491C1094.6 55.5939 1094.61 55.5332 1094.6 55.4737C1094.59 55.4142 1094.57 55.3582 1094.53 55.3118C1093.37 54.0136 1091.73 53.2069 1089.96 53.0662C1091.62 51.1386 1096.54 50.5603 1096.59 50.5507C1096.66 50.5455 1096.72 50.5181 1096.78 50.4728C1096.83 50.4275 1096.86 50.3668 1096.88 50.3001C1096.89 50.2628 1096.9 50.2226 1096.9 50.1821C1096.9 50.1415 1096.89 50.1013 1096.88 50.0637C1096.86 50.0261 1096.84 49.9919 1096.81 49.963C1096.78 49.9341 1096.75 49.9111 1096.71 49.8953C1095.15 48.9374 1093.38 48.3404 1091.54 48.1508C1093.54 45.7606 1099.9 44.2957 1099.97 44.2957C1100.03 44.2804 1100.1 44.2453 1100.14 44.1954C1100.19 44.1454 1100.22 44.0828 1100.23 44.0162C1100.23 43.9504 1100.22 43.8839 1100.19 43.8254C1100.16 43.7669 1100.11 43.7192 1100.05 43.6885C1095.79 41.5489 1090.59 43.6307 1090.35 43.6885C1084.35 46.5798 1084.08 56.1695 1084.71 62.81C1082.35 54.7431 1077.22 42.1079 1068.15 41.4429C1067.85 41.4429 1060.78 41.4428 1056.9 45.8474C1056.86 45.901 1056.84 45.9649 1056.84 46.0305C1056.84 46.096 1056.86 46.16 1056.9 46.2136C1056.93 46.2712 1056.98 46.3176 1057.05 46.3467C1057.11 46.3759 1057.18 46.3866 1057.25 46.3775C1057.34 46.3775 1065.79 45.0571 1069.25 47.081C1067.14 48.1358 1065.32 49.6667 1063.96 51.5434C1063.92 51.5999 1063.89 51.6672 1063.89 51.7361C1063.89 51.805 1063.92 51.8723 1063.96 51.9289C1064 51.984 1064.05 52.0257 1064.12 52.0481C1064.19 52.0706 1064.26 52.0727 1064.33 52.0542C1064.4 52.0542 1070.67 50.3675 1073.55 52.006C1072.53 52.4797 1071.63 53.1441 1070.88 53.9601C1070.14 54.7761 1069.57 55.7272 1069.22 56.7575C1069.2 56.816 1069.19 56.8791 1069.21 56.939C1069.23 56.999 1069.26 57.0531 1069.31 57.0948C1069.35 57.1383 1069.41 57.1679 1069.47 57.1799C1069.53 57.1919 1069.6 57.1858 1069.66 57.1623C1071.15 56.6322 1075.03 55.5816 1077.03 56.2949C1076.11 56.5531 1075.28 57.0485 1074.63 57.7278C1073.98 58.4072 1073.53 59.2447 1073.34 60.15C1073.33 60.2103 1073.33 60.272 1073.36 60.3282C1073.38 60.3844 1073.42 60.4329 1073.48 60.468C1073.53 60.4985 1073.59 60.5145 1073.66 60.5145C1073.72 60.5145 1073.78 60.4985 1073.84 60.468C1074.83 59.9772 1075.93 59.7357 1077.04 59.766C1078.15 59.7964 1079.24 60.0975 1080.2 60.6415C1078.95 61.1288 1077.88 61.9645 1077.13 63.0414C1077.1 63.0859 1077.09 63.1355 1077.09 63.1859C1077.09 63.2363 1077.1 63.286 1077.13 63.3305C1077.15 63.378 1077.17 63.4209 1077.21 63.4559C1077.25 63.491 1077.3 63.5173 1077.35 63.5329C1080.29 64.5506 1082.91 66.2875 1084.95 68.5735C1080.01 66.7327 1063.25 61.1909 1057.37 68.5735C1057.23 68.7759 1053.92 73.5852 1055.37 78.2981C1055.39 78.3613 1055.43 78.4173 1055.48 78.4585C1055.53 78.4998 1055.6 78.5245 1055.67 78.5294H1055.72C1055.78 78.5233 1055.83 78.5023 1055.88 78.4685C1055.93 78.4347 1055.97 78.3893 1056 78.3367C1056 78.2692 1058.92 72.0624 1061.94 70.6264C1061.76 72.5274 1062.04 74.4426 1062.78 76.2163C1062.8 76.2797 1062.84 76.3344 1062.9 76.3725C1062.96 76.4106 1063.03 76.4302 1063.1 76.4284C1063.17 76.4274 1063.24 76.4044 1063.3 76.3629C1063.35 76.3213 1063.4 76.2633 1063.42 76.1971C1063.42 76.1489 1065.07 71.2528 1067.53 69.9903C1067.42 70.8919 1067.49 71.8055 1067.75 72.6787C1068.01 73.5519 1068.44 74.3676 1069.03 75.0791C1069.07 75.1263 1069.12 75.1615 1069.18 75.1803C1069.24 75.1991 1069.31 75.2007 1069.37 75.1851C1069.43 75.173 1069.48 75.1438 1069.53 75.1009C1069.57 75.058 1069.6 75.0035 1069.62 74.9441C1069.91 73.7298 1070.88 70.742 1072.25 69.6433C1072.04 70.3831 1072.04 71.1632 1072.24 71.9034C1072.45 72.6436 1072.86 73.3172 1073.43 73.855C1073.47 73.8955 1073.53 73.9231 1073.59 73.935C1073.65 73.9469 1073.72 73.9426 1073.78 73.9225C1073.84 73.8999 1073.89 73.8618 1073.93 73.8125C1073.97 73.7632 1073.99 73.7046 1074 73.643C1074.1 72.772 1074.43 71.9387 1074.94 71.215C1075.45 70.4913 1076.14 69.899 1076.95 69.4891C1076.75 70.5415 1076.87 71.6272 1077.31 72.6118C1077.33 72.658 1077.36 72.6988 1077.4 72.7308C1077.44 72.7627 1077.49 72.7847 1077.54 72.7949C1077.59 72.8056 1077.64 72.8052 1077.69 72.7935C1077.74 72.7818 1077.79 72.7592 1077.83 72.7274C1078.62 72.1302 1079.48 71.6285 1080.4 71.2336C1080 71.5896 1079.69 72.0291 1079.49 72.5185C1079.29 73.0078 1079.21 73.5342 1079.26 74.0575C1079.34 74.9762 1079.79 75.8262 1080.53 76.4207C1081.26 77.0153 1082.2 77.3057 1083.16 77.2283C1083.94 77.1621 1084.68 76.8468 1085.26 76.332C1086.11 78.4716 1089.36 88.7263 1083.86 109.101C1076.44 111.25 1075.26 113.505 1074.23 115.5C1073.89 116.225 1073.45 116.898 1072.91 117.495C1072.38 118.208 1072.07 119.045 1072.01 119.915C1071.95 120.786 1072.14 121.656 1072.56 122.43C1073.93 125.186 1078.44 128.213 1092.1 127.104C1101.5 126.333 1107.29 124.213 1109.31 120.801C1109.72 120.148 1109.96 119.411 1110.03 118.65C1110.09 117.888 1109.96 117.123 1109.67 116.416C1107.67 111.809 1102.55 108.079 1097.67 107.626C1096.89 100.195 1094.5 82.7797 1088.84 75.8212C1089.08 75.8452 1089.32 75.8452 1089.56 75.8212C1090.51 75.7403 1091.39 75.2983 1092.01 74.592C1092.63 73.8857 1092.93 72.9726 1092.85 72.0528C1092.78 71.3615 1092.51 70.7042 1092.05 70.1662C1091.6 69.6283 1090.99 69.2345 1090.3 69.0361C1092.22 68.8748 1094.16 69.0479 1096.03 69.5469C1096.07 69.5682 1096.12 69.5793 1096.17 69.5793C1096.22 69.5793 1096.27 69.5682 1096.32 69.5469C1096.36 69.5202 1096.4 69.4833 1096.42 69.4396C1096.45 69.396 1096.46 69.3468 1096.47 69.2963C1096.49 68.0977 1096.14 66.9193 1095.47 65.9134C1096.48 66.0059 1097.46 66.3406 1098.31 66.8874C1099.16 67.4342 1099.85 68.176 1100.33 69.0458C1100.35 69.1 1100.4 69.1457 1100.45 69.178C1100.5 69.2104 1100.56 69.228 1100.63 69.2289C1100.69 69.228 1100.75 69.2104 1100.8 69.178C1100.86 69.1457 1100.9 69.1 1100.93 69.0458C1101.29 68.2656 1101.43 67.405 1101.32 66.5561C1101.21 65.7073 1100.87 64.9021 1100.33 64.2268C1102.21 64.7569 1104.53 67.5037 1105.33 68.6602C1105.36 68.7081 1105.41 68.7465 1105.46 68.7718C1105.52 68.7971 1105.58 68.8085 1105.64 68.8048V68.8048C1105.7 68.7957 1105.76 68.769 1105.81 68.7279C1105.86 68.6868 1105.89 68.6332 1105.91 68.5735C1106.2 67.6177 1106.3 66.6149 1106.19 65.6226C1106.09 64.6303 1105.78 63.668 1105.29 62.7908C1108.36 63.0799 1112.14 67.523 1112.18 67.6097C1112.22 67.6623 1112.28 67.7005 1112.35 67.7194C1112.42 67.7383 1112.49 67.737 1112.56 67.7157C1112.63 67.6943 1112.68 67.6512 1112.72 67.5935C1112.76 67.5358 1112.78 67.4668 1112.78 67.3977C1112.79 65.2845 1112.27 63.1997 1111.28 61.3162C1114.99 61.586 1120.62 66.8869 1120.68 66.9447C1120.73 66.9914 1120.79 67.0221 1120.86 67.0325C1120.93 67.0429 1120.99 67.0324 1121.06 67.0025C1121.12 66.9749 1121.17 66.9295 1121.2 66.8726C1121.24 66.8156 1121.25 66.7499 1121.25 66.6845C1120.82 61.3162 1115.43 57.6827 1115.18 57.5189ZM1097.29 111.115C1097.16 112.128 1096.72 113.083 1096.05 113.865C1095.37 114.648 1094.47 115.226 1093.46 115.529C1090.62 116.493 1086.61 115.857 1084.71 114.141C1084.32 113.839 1084.03 113.436 1083.87 112.98C1083.72 112.524 1083.7 112.034 1083.82 111.568L1084.06 110.72C1086.52 111.601 1089.14 111.991 1091.76 111.867C1093.8 111.788 1095.73 110.952 1097.15 109.535C1097.24 110.412 1097.28 110.971 1097.29 111.115V111.115ZM1097.06 108.609C1093.63 113.052 1085.8 110.633 1084.23 110.084C1084.69 108.445 1085.09 106.871 1085.44 105.361C1087.2 106.413 1089.28 106.88 1091.35 106.691C1093.22 106.5 1095.03 105.918 1096.65 104.985C1096.82 106.393 1096.96 107.626 1097.06 108.609ZM1096.56 104.282C1090.56 107.751 1086.44 105.246 1085.56 104.677C1085.9 103.164 1086.18 101.718 1086.43 100.34C1088.04 100.842 1089.74 101.035 1091.43 100.909C1092.97 100.791 1094.47 100.346 1095.82 99.6075C1096.15 101.275 1096.37 102.904 1096.56 104.282ZM1086.56 99.6846C1086.81 98.2389 1087.01 96.851 1087.16 95.5499C1088.48 96.0164 1089.89 96.1973 1091.3 96.08C1092.61 95.9728 1093.88 95.5948 1095.03 94.9717C1095.3 96.3113 1095.53 97.6317 1095.74 98.9135C1094.35 99.6491 1092.82 100.098 1091.24 100.23C1089.66 100.363 1088.08 100.177 1086.58 99.6846H1086.56ZM1087.23 94.8656C1087.36 93.632 1087.46 92.4562 1087.52 91.3478C1088.65 91.7094 1089.84 91.8471 1091.03 91.7526C1092.12 91.6583 1093.19 91.3291 1094.14 90.7888C1094.41 91.9357 1094.67 93.1019 1094.9 94.2488C1093.75 94.8943 1092.47 95.2854 1091.14 95.3938C1089.82 95.5022 1088.49 95.3251 1087.25 94.8753L1087.23 94.8656ZM1087.56 90.6635C1087.56 89.6323 1087.62 88.6588 1087.61 87.7722C1088.35 87.9017 1089.1 87.9373 1089.85 87.8782C1091 87.8031 1092.11 87.4156 1093.05 86.7602C1093.38 87.8782 1093.69 89.0251 1093.97 90.1816C1093 90.7054 1091.93 91.0206 1090.83 91.1055C1089.72 91.1904 1088.61 91.0429 1087.58 90.6732L1087.56 90.6635ZM1087.61 87.0686C1087.61 85.9217 1087.53 84.8712 1087.44 83.9074C1087.97 84.0247 1088.53 84.0605 1089.08 84.0134C1090.07 83.9273 1091.02 83.5952 1091.84 83.0496C1092.19 84.0134 1092.53 84.9772 1092.84 86.0277C1092.09 86.544 1091.24 86.9042 1090.35 87.0851C1089.45 87.2661 1088.52 87.2637 1087.63 87.0782L1087.61 87.0686ZM1087.38 83.2135C1087.29 82.4039 1087.19 81.6618 1087.08 80.9871C1087.39 81.0169 1087.71 81.0169 1088.03 80.9871C1088.95 80.925 1089.83 80.5883 1090.55 80.0233C1090.92 80.7847 1091.26 81.5943 1091.6 82.4328C1091.01 82.8653 1090.32 83.1615 1089.59 83.2985C1088.86 83.4355 1088.11 83.4097 1087.4 83.2231L1087.38 83.2135ZM1086.97 80.3221C1086.82 79.5511 1086.67 78.886 1086.52 78.3174C1086.72 78.3367 1086.93 78.3367 1087.14 78.3174C1087.89 78.2676 1088.6 77.956 1089.14 77.4403C1089.55 78.0616 1089.93 78.7052 1090.28 79.3679C1089.84 79.7542 1089.31 80.0412 1088.74 80.2079C1088.18 80.3747 1087.57 80.4169 1086.99 80.3317L1086.97 80.3221ZM1086.32 77.6235C1086.13 76.9874 1085.96 76.5151 1085.83 76.1874H1086.26C1086.79 76.1405 1087.3 75.9791 1087.76 75.7152C1088.11 76.0848 1088.45 76.4742 1088.76 76.8814C1088.46 77.2014 1088.08 77.4395 1087.65 77.5715C1087.23 77.7036 1086.77 77.7248 1086.34 77.6331L1086.32 77.6235ZM1087.63 75.0309C1087.3 75.2477 1086.93 75.3995 1086.54 75.4772C1086.15 75.555 1085.75 75.5572 1085.36 75.4839C1084.74 75.3614 1084.18 75.0493 1083.76 74.5943C1083.34 74.1392 1083.08 73.5655 1083.03 72.9587C1082.99 72.5946 1083.03 72.2275 1083.15 71.8785C1083.26 71.5295 1083.44 71.2055 1083.69 70.9252V70.9252C1083.93 70.6331 1084.23 70.3919 1084.58 70.2163C1084.92 70.0407 1085.3 69.9343 1085.69 69.9035H1086.12C1086.49 69.9215 1086.85 70.0099 1087.19 70.1637C1087.65 70.3746 1088.05 70.6993 1088.34 71.1052C1088.64 71.5111 1088.81 71.9841 1088.86 72.4768C1088.91 72.969 1088.82 73.4655 1088.61 73.9157C1088.4 74.3659 1088.06 74.754 1087.65 75.0405L1087.63 75.0309ZM1090.63 44.3535C1091.91 43.8745 1093.26 43.5727 1094.63 43.4572C1096.06 43.3137 1097.51 43.4749 1098.87 43.9294C1096.78 44.4884 1091.87 46.0112 1090.63 48.3436C1090.59 48.3927 1090.58 48.4495 1090.58 48.5074C1090.58 48.5654 1090.59 48.6222 1090.63 48.6713C1090.66 48.7198 1090.7 48.7589 1090.76 48.7845C1090.81 48.81 1090.87 48.8209 1090.93 48.8158C1092.53 48.8527 1094.09 49.2663 1095.49 50.0206C1093.71 50.3386 1090.06 51.206 1089 53.1915C1088.97 53.2398 1088.95 53.2946 1088.95 53.3505C1088.95 53.4063 1088.97 53.4611 1089 53.5095C1089.03 53.559 1089.07 53.5995 1089.12 53.6267C1089.18 53.6539 1089.24 53.6667 1089.3 53.6637C1090.84 53.6705 1092.32 54.219 1093.47 55.2058C1091.95 55.3311 1088.52 55.8033 1087.64 57.4128C1087.6 57.4649 1087.59 57.525 1087.59 57.5863C1087.59 57.6477 1087.6 57.7078 1087.64 57.7598C1087.67 57.8126 1087.72 57.8531 1087.79 57.8756C1087.85 57.8981 1087.91 57.9014 1087.98 57.8851C1088.6 57.7643 1089.25 57.7887 1089.86 57.9563C1090.47 58.1239 1091.03 58.4299 1091.5 58.8489C1090.53 58.8652 1089.59 59.1203 1088.76 59.5897C1087.93 60.059 1087.24 60.7267 1086.76 61.5282C1086.72 61.5792 1086.71 61.6374 1086.71 61.6969C1086.71 61.7563 1086.72 61.8146 1086.76 61.8655C1086.79 61.9156 1086.84 61.9556 1086.9 61.981C1086.95 62.0065 1087.01 62.0166 1087.08 62.0101C1088.02 61.9472 1088.97 62.1268 1089.82 62.5305C1088.12 64.1137 1086.83 66.0577 1086.05 68.2073C1085.34 63.5811 1083.12 48.0159 1090.71 44.3631L1090.63 44.3535ZM1077.86 63.1474C1078.67 62.2222 1079.72 61.5315 1080.92 61.1523C1080.98 61.1358 1081.03 61.1037 1081.07 61.0595C1081.12 61.0153 1081.14 60.9607 1081.16 60.9018C1081.17 60.8424 1081.16 60.7816 1081.14 60.7257C1081.11 60.6697 1081.08 60.6207 1081.03 60.5837C1080.04 59.8686 1078.87 59.4135 1077.64 59.2631C1076.42 59.1128 1075.17 59.2723 1074.03 59.7259C1074.84 57.3165 1077.69 56.8346 1077.82 56.7767C1077.88 56.7689 1077.94 56.7426 1077.99 56.7013C1078.04 56.66 1078.07 56.6057 1078.09 56.5454C1078.1 56.4848 1078.1 56.4216 1078.08 56.3622C1078.06 56.3029 1078.02 56.2496 1077.98 56.2081C1076.12 54.7046 1071.69 55.8708 1069.98 56.4009C1070.81 54.6131 1072.33 53.2 1074.21 52.4493C1074.26 52.4308 1074.31 52.3976 1074.35 52.3535C1074.39 52.3093 1074.42 52.2559 1074.43 52.1988C1074.44 52.1426 1074.43 52.0848 1074.41 52.0309C1074.39 51.9769 1074.36 51.9286 1074.32 51.8903C1072.04 50.0109 1067.08 50.8109 1064.98 51.2639C1066.27 49.6375 1067.97 48.354 1069.92 47.534C1069.97 47.5146 1070.02 47.4812 1070.06 47.4372C1070.1 47.3932 1070.13 47.3402 1070.14 47.2834C1070.15 47.2272 1070.15 47.1689 1070.13 47.1146C1070.11 47.0603 1070.07 47.0121 1070.03 46.975C1067.32 44.7776 1060.53 45.3655 1058.03 45.6642C1061.81 42.1368 1068.03 42.1561 1068.09 42.1561C1079.01 42.9656 1084.18 62.9642 1085.36 68.294C1083.34 66.0204 1080.78 64.2568 1077.9 63.157L1077.86 63.1474ZM1077.71 72.0624C1077.44 71.1156 1077.44 70.1179 1077.71 69.171C1077.73 69.1138 1077.73 69.0527 1077.71 68.9947C1077.69 68.9367 1077.66 68.8842 1077.62 68.8434C1077.57 68.8011 1077.52 68.7715 1077.46 68.7579C1077.4 68.7443 1077.34 68.7472 1077.28 68.7662C1076.31 69.0992 1075.44 69.6668 1074.77 70.4145C1074.09 71.1622 1073.63 72.0649 1073.42 73.0358C1073.05 72.4743 1072.82 71.8345 1072.77 71.1715C1072.71 70.5085 1072.82 69.8419 1073.09 69.2289C1073.12 69.1787 1073.14 69.1201 1073.14 69.0602C1073.14 69.0003 1073.12 68.9417 1073.09 68.8915C1073.04 68.8452 1072.99 68.8115 1072.93 68.7944C1072.86 68.7774 1072.8 68.7776 1072.74 68.7952C1070.8 69.3445 1069.6 72.766 1069.17 74.2406C1068.3 72.8739 1067.99 71.2451 1068.31 69.6722C1068.32 69.6169 1068.32 69.5594 1068.3 69.5053C1068.28 69.4513 1068.25 69.4025 1068.21 69.3638C1068.17 69.3214 1068.11 69.2915 1068.05 69.2778C1067.99 69.2642 1067.93 69.2672 1067.88 69.2867C1065.5 69.9517 1063.81 73.5274 1063.13 75.2333C1062.58 73.6515 1062.44 71.9641 1062.72 70.318C1062.73 70.2621 1062.73 70.2029 1062.72 70.1468C1062.7 70.0907 1062.67 70.0399 1062.63 69.9999C1062.58 69.9594 1062.53 69.9309 1062.47 69.9173C1062.41 69.9037 1062.35 69.9056 1062.3 69.9228C1059.49 70.7324 1056.83 75.4164 1055.82 77.3729C1055.09 73.2382 1057.91 69.1325 1057.93 69.1036C1059.63 66.9832 1062.36 66.0291 1065.48 65.7689C1072.53 65.1906 1081.48 68.1976 1084.79 69.4023C1082.24 69.7315 1079.81 70.6436 1077.71 72.0624ZM1083.51 70.2794L1083.34 70.4336H1083.04L1083.51 70.2794ZM1079.88 74.1346C1079.84 73.7642 1079.89 73.3913 1080 73.0371C1080.12 72.6829 1080.31 72.3545 1080.56 72.0706C1080.81 71.7868 1081.11 71.5531 1081.45 71.383C1081.8 71.2129 1082.17 71.1097 1082.56 71.0794H1082.86V71.1275C1082.86 71.1757 1082.81 71.2336 1082.78 71.2817C1082.71 71.4131 1082.65 71.5482 1082.6 71.6865L1082.54 71.8889C1082.5 72.0248 1082.47 72.1633 1082.45 72.3034V72.4865C1082.43 72.6949 1082.43 72.9046 1082.45 73.1129C1082.46 73.2885 1082.49 73.4625 1082.54 73.6334C1082.54 73.6912 1082.54 73.749 1082.59 73.8069L1082.71 74.1346L1082.8 74.3177C1082.84 74.4139 1082.9 74.5073 1082.96 74.5972L1083.08 74.7803C1083.13 74.8646 1083.2 74.9451 1083.27 75.0213L1083.42 75.1851C1083.49 75.2637 1083.57 75.3378 1083.65 75.4068L1083.82 75.5417C1083.9 75.6113 1083.99 75.6757 1084.09 75.7344L1084.26 75.8405C1084.4 75.9194 1084.55 75.9871 1084.71 76.0429V76.0429C1084.24 76.4212 1083.67 76.6504 1083.07 76.6982C1082.67 76.7338 1082.28 76.6933 1081.9 76.5789C1081.53 76.4645 1081.18 76.2786 1080.88 76.0324C1080.58 75.7861 1080.34 75.4844 1080.16 75.1451C1079.99 74.8059 1079.88 74.436 1079.86 74.0575L1079.88 74.1346ZM1109.03 116.821C1109.28 117.446 1109.38 118.119 1109.32 118.788C1109.26 119.457 1109.04 120.103 1108.68 120.676C1107.37 122.873 1103.41 125.697 1092.01 126.642C1078.01 127.789 1074.18 124.435 1073.13 122.324C1072.77 121.666 1072.61 120.93 1072.65 120.191C1072.7 119.453 1072.94 118.738 1073.37 118.122C1073.95 117.478 1074.44 116.754 1074.81 115.973C1075.81 114.045 1076.86 112.06 1083.62 110.026C1083.49 110.518 1083.35 110.99 1083.21 111.51C1083.04 112.09 1083.06 112.703 1083.25 113.275C1083.44 113.847 1083.8 114.353 1084.29 114.729C1085.29 115.497 1086.43 116.068 1087.66 116.409C1088.89 116.749 1090.18 116.853 1091.45 116.715C1092.22 116.651 1092.99 116.496 1093.73 116.252C1094.86 115.909 1095.87 115.258 1096.62 114.377C1097.38 113.497 1097.86 112.425 1098.01 111.289V111.221C1098.01 111.019 1097.92 110.016 1097.76 108.465C1100.19 108.846 1102.5 109.801 1104.46 111.245C1106.42 112.689 1107.98 114.578 1109.01 116.744L1109.03 116.821ZM1092.17 72.2937C1092.2 72.6633 1092.16 73.0355 1092.04 73.3891C1091.92 73.7427 1091.74 74.0707 1091.49 74.3544C1091.24 74.6382 1090.94 74.872 1090.6 75.0427C1090.25 75.2133 1089.88 75.3174 1089.5 75.3489C1089.16 75.3802 1088.82 75.3541 1088.5 75.2718C1088.56 75.2236 1088.6 75.1658 1088.66 75.108L1088.74 75.0213C1088.83 74.9152 1088.92 74.7996 1089 74.6839C1089.07 74.5779 1089.13 74.4623 1089.19 74.3562L1089.25 74.2309C1089.25 74.1442 1089.32 74.0575 1089.35 73.9611C1089.38 73.8647 1089.35 73.8647 1089.4 73.8165C1089.43 73.7281 1089.45 73.6379 1089.47 73.5467V73.4021V73.1129C1089.47 73.0681 1089.47 73.0229 1089.47 72.978C1089.48 72.8336 1089.48 72.6887 1089.47 72.5443C1089.47 72.3997 1089.47 72.2648 1089.4 72.1202C1089.33 71.9757 1089.4 72.0335 1089.4 71.9853C1089.4 71.9371 1089.35 71.8022 1089.32 71.7155L1089.26 71.5613C1089.22 71.4792 1089.19 71.3988 1089.15 71.3203C1089.12 71.2702 1089.1 71.2218 1089.07 71.1757C1089.07 71.0986 1088.98 71.0215 1088.93 70.9444L1088.84 70.8191C1088.78 70.7292 1088.7 70.6453 1088.63 70.5686L1088.57 70.4914C1088.47 70.3934 1088.37 70.3001 1088.27 70.2119L1088.15 70.1252L1087.98 69.9903C1088.27 69.8645 1088.59 69.7864 1088.92 69.7589C1089.68 69.6773 1090.45 69.8893 1091.05 70.3493C1091.66 70.8092 1092.05 71.48 1092.15 72.2166L1092.17 72.2937ZM1110.71 60.7283C1110.65 60.7335 1110.59 60.753 1110.54 60.785C1110.49 60.8171 1110.45 60.8605 1110.43 60.9114C1110.4 60.9615 1110.38 61.0179 1110.38 61.0752C1110.38 61.1326 1110.4 61.1889 1110.43 61.2391C1111.43 62.8462 1112 64.6677 1112.09 66.5399C1110.72 65.0942 1107.46 62.0101 1104.72 62.2414C1104.66 62.2454 1104.6 62.2646 1104.56 62.2968C1104.51 62.3291 1104.47 62.3732 1104.45 62.4245C1104.42 62.4746 1104.4 62.5311 1104.4 62.5884C1104.4 62.6457 1104.42 62.7021 1104.45 62.7522C1105.43 64.2755 1105.78 66.097 1105.45 67.8603C1104.45 66.5496 1101.73 63.4365 1099.5 63.6293C1099.43 63.632 1099.37 63.6538 1099.32 63.6917C1099.27 63.7296 1099.23 63.7817 1099.21 63.8413C1099.18 63.8986 1099.18 63.9618 1099.19 64.0222C1099.21 64.0827 1099.24 64.1374 1099.29 64.1786C1099.83 64.7131 1100.23 65.3685 1100.44 66.0864C1100.66 66.8044 1100.69 67.5627 1100.53 68.294C1099.91 67.3799 1099.05 66.6342 1098.05 66.1281C1097.04 65.6219 1095.92 65.3722 1094.79 65.4026C1094.72 65.4065 1094.66 65.4264 1094.61 65.4602C1094.56 65.4941 1094.51 65.5407 1094.49 65.5954C1094.46 65.6506 1094.45 65.7113 1094.46 65.7708C1094.47 65.8303 1094.5 65.8863 1094.54 65.9327C1095.22 66.8212 1095.64 67.8756 1095.74 68.9783C1093.87 68.5309 1091.95 68.3876 1090.04 68.5542C1089.11 68.6366 1088.19 68.7815 1087.29 68.9879C1091.29 65.4701 1106.14 53.1529 1114.78 58.1357C1114.83 58.1357 1119.52 61.3258 1120.45 65.9134C1118.71 64.275 1113.94 60.4102 1110.71 60.6801V60.7283Z" fill="#E5E5E5"/>
<mask id="mask0_3_2" style="mask-type:alpha" maskUnits="userSpaceOnUse" x="0" y="55" width="480" height="361">
<rect x="479.5" y="55.5" width="360" height="479" transform="rotate(90 479.5 55.5)" fill="url(#paint0_linear_3_2)" stroke="#6246E5"/>
</mask>
<g mask="url(#mask0_3_2)">
<path d="M129.995 516.92C60.6624 516.92 4.45579 460.635 4.45579 391.202C4.45579 321.769 60.6624 265.484 129.995 265.484C199.328 265.484 255.535 321.769 255.535 391.202C255.535 460.635 199.328 516.92 129.995 516.92Z" stroke="#E5E5E5"/>
<path d="M143.263 521.902C65.6868 521.902 2.79772 458.925 2.79772 381.237C2.79773 303.549 65.6868 240.572 143.263 240.572C220.839 240.572 283.728 303.549 283.728 381.237C283.728 458.925 220.839 521.902 143.263 521.902Z" stroke="#E5E5E5"/>
<path d="M154.042 526.885C69.1385 526.885 0.309499 457.959 0.309503 372.934C0.309506 287.909 69.1385 218.983 154.042 218.983C238.945 218.983 307.774 287.909 307.774 372.934C307.774 457.959 238.945 526.885 154.042 526.885Z" stroke="#E5E5E5"/>
<path d="M169.798 530.206C78.483 530.206 4.45644 456.076 4.45644 364.63C4.45645 273.184 78.483 199.054 169.798 199.054C261.113 199.054 335.139 273.184 335.139 364.63C335.139 456.076 261.113 530.206 169.798 530.206Z" stroke="#E5E5E5"/>
<path d="M185.138 533.527C87.6404 533.527 8.60204 454.378 8.60204 356.741C8.60205 259.104 87.6404 179.955 185.138 179.955C282.635 179.955 361.673 259.104 361.673 356.741C361.673 454.378 282.635 533.527 185.138 533.527Z" stroke="#E5E5E5"/>
<path d="M202.551 537.68C95.4366 537.68 8.60204 450.723 8.60204 343.456C8.60205 236.188 95.4366 149.231 202.551 149.231C309.665 149.231 396.5 236.188 396.5 343.456C396.5 450.723 309.665 537.68 202.551 537.68Z" stroke="#E5E5E5"/>
</g>
<defs>
<linearGradient id="paint0_linear_3_2" x1="736.035" y1="68.4669" x2="487.704" y2="539.066" gradientUnits="userSpaceOnUse">
<stop stop-color="#747DEF"/>
<stop offset="1" stop-color="#5E3BE1"/>
</linearGradient>
</defs>
</svg>
